<svg width="1549" height="1330" xmlns="http://www.w3.org/2000/svg" xmlns:xlink="http://www.w3.org/1999/xlink" xml:space="preserve" overflow="hidden"><g transform="translate(-1096 -226)"><path d="M1100.5 1380.5 1613.5 1380.5 1613.5 1547.5 1100.5 1547.5 1100.5 1380.5Z" stroke="#CBCBCB" stroke-width="6.875" stroke-miterlimit="8" stroke-opacity="0.901961" fill="#CBCBCB" fill-rule="evenodd" fill-opacity="0.901961"/><text font-family="Arial,Arial_MSFontService,sans-serif" font-weight="400" font-size="41" transform="matrix(1 0 0 1 1136.52 1454)">Predict antibody binding </text><text font-family="Arial,Arial_MSFontService,sans-serif" font-weight="400" font-size="41" transform="matrix(1 0 0 1 1134.23 1499)">affinity with </text><text font-family="Arial,Arial_MSFontService,sans-serif" font-style="italic" font-weight="400" font-size="41" transform="matrix(1 0 0 1 1349.65 1499)">HADDOCK3</text><path d="M1613.5 1380.5 2126.5 1380.5 2126.5 1547.5 1613.5 1547.5 1613.5 1380.5Z" stroke="#CBCBCB" stroke-width="6.875" stroke-miterlimit="8" stroke-opacity="0.901961" fill="#CBCBCB" fill-rule="evenodd" fill-opacity="0.901961"/><text font-family="Arial,Arial_MSFontService,sans-serif" font-weight="400" font-size="41" transform="matrix(1 0 0 1 1654.2 1454)">Predict protein complex </text><text font-family="Arial,Arial_MSFontService,sans-serif" font-weight="400" font-size="41" transform="matrix(1 0 0 1 1698.88 1499)">stability with </text><text font-family="Arial,Arial_MSFontService,sans-serif" font-style="italic" font-weight="400" font-size="41" transform="matrix(1 0 0 1 1932.63 1499)">FoldX</text><path d="M2126.5 1380.5 2639.5 1380.5 2639.5 1547.5 2126.5 1547.5 2126.5 1380.5Z" stroke="#CBCBCB" stroke-width="6.875" stroke-miterlimit="8" stroke-opacity="0.901961" fill="#CBCBCB" fill-rule="evenodd" fill-opacity="0.901961"/><text font-family="Arial,Arial_MSFontService,sans-serif" font-weight="400" font-size="41" transform="matrix(1 0 0 1 2194.79 1432)">Predict </text><text font-family="Arial,Arial_MSFontService,sans-serif" font-weight="400" font-size="41" transform="matrix(1 0 0 1 2334.58 1432)">Fv</text><text font-family="Arial,Arial_MSFontService,sans-serif" font-weight="400" font-size="41" transform="matrix(1 0 0 1 2391.87 1432)">sequence </text><text font-family="Arial,Arial_MSFontService,sans-serif" font-weight="400" font-size="41" transform="matrix(1 0 0 1 2233.74 1477)">humanness with </text><text font-family="Arial,Arial_MSFontService,sans-serif" font-style="italic" font-weight="400" font-size="41" transform="matrix(1 0 0 1 2300.2 1521)">Humatch</text><path d="M1099.5 1038.5 1870.5 1038.5 1870.5 1204.5 1099.5 1204.5 1099.5 1038.5Z" stroke="#CBCBCB" stroke-width="6.875" stroke-miterlimit="8" stroke-opacity="0.901961" fill="#CBCBCB" fill-rule="evenodd" fill-opacity="0.901961"/><text font-family="Arial,Arial_MSFontService,sans-serif" font-weight="400" font-size="41" transform="matrix(1 0 0 1 1155.56 1111)">Generate 50 </text><text font-family="Arial,Arial_MSFontService,sans-serif" font-weight="400" font-size="41" transform="matrix(1 0 0 1 1396.19 1111)">Fv</text><text font-family="Arial,Arial_MSFontService,sans-serif" font-weight="400" font-size="41" transform="matrix(1 0 0 1 1453.48 1111)">sequences for each </text><text font-family="Arial,Arial_MSFontService,sans-serif" font-weight="400" font-size="41" transform="matrix(1 0 0 1 1314.83 1156)">antigen and model</text><path d="M1870.5 1038.5 2640.5 1038.5 2640.5 1204.5 1870.5 1204.5 1870.5 1038.5Z" stroke="#CBCBCB" stroke-width="6.875" stroke-miterlimit="8" stroke-opacity="0.901961" fill="#CBCBCB" fill-rule="evenodd" fill-opacity="0.901961"/><text font-family="Arial,Arial_MSFontService,sans-serif" font-weight="400" font-size="41" transform="matrix(1 0 0 1 1901.89 1111)">Fold each generated </text><text font-family="Arial,Arial_MSFontService,sans-serif" font-weight="400" font-size="41" transform="matrix(1 0 0 1 2291.47 1111)">Fv</text><text font-family="Arial,Arial_MSFontService,sans-serif" font-weight="400" font-size="41" transform="matrix(1 0 0 1 2348.76 1111)">sequence and </text><text font-family="Arial,Arial_MSFontService,sans-serif" font-weight="400" font-size="41" transform="matrix(1 0 0 1 1953.45 1156)">antigen as a multimer with </text><text font-family="Arial,Arial_MSFontService,sans-serif" font-style="italic" font-weight="400" font-size="41" transform="matrix(1 0 0 1 2443.87 1156)">ESM3</text><path d="M1099.5 695.5 1484.5 695.5 1484.5 861.5 1099.5 861.5 1099.5 695.5Z" stroke="#CBCBCB" stroke-width="6.875" stroke-miterlimit="8" stroke-opacity="0.901961" fill="#CBCBCB" fill-rule="evenodd" fill-opacity="0.901961"/><text font-family="Arial,Arial_MSFontService,sans-serif" font-weight="400" font-size="41" transform="matrix(1 0 0 1 1156.61 746)">Retrieve open</text><text font-family="Arial,Arial_MSFontService,sans-serif" font-weight="400" font-size="41" transform="matrix(1 0 0 1 1413.28 746)">-</text><text font-family="Arial,Arial_MSFontService,sans-serif" font-weight="400" font-size="41" transform="matrix(1 0 0 1 1121.09 791)">source model from </text><text font-family="Arial,Arial_MSFontService,sans-serif" font-weight="400" font-size="41" transform="matrix(1 0 0 1 1163.49 835)">Hugging Face</text><path d="M1484.5 695.5 1870.5 695.5 1870.5 861.5 1484.5 861.5 1484.5 695.5Z" stroke="#CBCBCB" stroke-width="6.875" stroke-miterlimit="8" stroke-opacity="0.901961" fill="#CBCBCB" fill-rule="evenodd" fill-opacity="0.901961"/><text font-family="Arial,Arial_MSFontService,sans-serif" font-weight="400" font-size="41" transform="matrix(1 0 0 1 1521.18 768)">Update tokenizer </text><text font-family="Arial,Arial_MSFontService,sans-serif" font-weight="400" font-size="41" transform="matrix(1 0 0 1 1518.89 813)">with </text><text font-family="Arial,Arial_MSFontService,sans-serif" font-style="italic" font-weight="400" font-size="41" transform="matrix(1 0 0 1 1603.68 813)">transformers</text><path d="M1870.5 695.5 2255.5 695.5 2255.5 861.5 1870.5 861.5 1870.5 695.5Z" stroke="#CBCBCB" stroke-width="6.875" stroke-miterlimit="8" stroke-opacity="0.901961" fill="#CBCBCB" fill-rule="evenodd" fill-opacity="0.901961"/><text font-family="Arial,Arial_MSFontService,sans-serif" font-weight="400" font-size="41" transform="matrix(1 0 0 1 1944.19 768)">Set up PEFT </text><text font-family="Arial,Arial_MSFontService,sans-serif" font-weight="400" font-size="41" transform="matrix(1 0 0 1 1992.31 813)">adapter</text><path d="M2255.5 695.5 2640.5 695.5 2640.5 861.5 2255.5 861.5 2255.5 695.5Z" stroke="#CBCBCB" stroke-width="6.875" stroke-miterlimit="8" stroke-opacity="0.901961" fill="#CBCBCB" fill-rule="evenodd" fill-opacity="0.901961"/><text font-family="Arial,Arial_MSFontService,sans-serif" font-weight="400" font-size="41" transform="matrix(1 0 0 1 2308.76 768)">Tune model for </text><text font-family="Arial,Arial_MSFontService,sans-serif" font-weight="400" font-size="41" transform="matrix(1 0 0 1 2304.17 813)">multiple</text><text font-family="Arial,Arial_MSFontService,sans-serif" font-weight="400" font-size="41" transform="matrix(1 0 0 1 2457.72 813)">epochs</text><path d="M1099.5 352.5 1484.5 352.5 1484.5 519.5 1099.5 519.5 1099.5 352.5Z" stroke="#CBCBCB" stroke-width="6.875" stroke-miterlimit="8" stroke-opacity="0.901961" fill="#CBCBCB" fill-rule="evenodd" fill-opacity="0.901961"/><text font-family="Arial,Arial_MSFontService,sans-serif" font-weight="400" font-size="41" transform="matrix(1 0 0 1 1145.16 426)">Collect </text><text font-family="Arial,Arial_MSFontService,sans-serif" font-weight="400" font-size="41" transform="matrix(1 0 0 1 1282.66 426)">antibody </text><text font-family="Arial,Arial_MSFontService,sans-serif" font-weight="400" font-size="41" transform="matrix(1 0 0 1 1122.24 471)">data </text><text font-family="Arial,Arial_MSFontService,sans-serif" font-weight="400" font-size="41" transform="matrix(1 0 0 1 1213.91 471)">from </text><text font-family="Arial,Arial_MSFontService,sans-serif" font-style="italic" font-weight="400" font-size="41" transform="matrix(1 0 0 1 1307.86 471)">SAbDab</text><path d="M1484.5 352.5 1870.5 352.5 1870.5 519.5 1484.5 519.5 1484.5 352.5Z" stroke="#CBCBCB" stroke-width="6.875" stroke-miterlimit="8" stroke-opacity="0.901961" fill="#CBCBCB" fill-rule="evenodd" fill-opacity="0.901961"/><text font-family="Arial,Arial_MSFontService,sans-serif" font-weight="400" font-size="41" transform="matrix(1 0 0 1 1537.22 404)">Download </text><text font-family="Arial,Arial_MSFontService,sans-serif" font-weight="400" font-size="41" transform="matrix(1 0 0 1 1732.02 404)">PDB </text><text font-family="Arial,Arial_MSFontService,sans-serif" font-weight="400" font-size="41" transform="matrix(1 0 0 1 1568.16 449)">entries</text><text font-family="Arial,Arial_MSFontService,sans-serif" font-weight="400" font-size="41" transform="matrix(1 0 0 1 1703.37 449)">from </text><text font-family="Arial,Arial_MSFontService,sans-serif" font-weight="400" font-size="41" transform="matrix(1 0 0 1 1509.72 493)">Protein Data Bank</text><path d="M1870.5 352.5 2255.5 352.5 2255.5 519.5 1870.5 519.5 1870.5 352.5Z" stroke="#CBCBCB" stroke-width="6.875" stroke-miterlimit="8" stroke-opacity="0.901961" fill="#CBCBCB" fill-rule="evenodd" fill-opacity="0.901961"/><text font-family="Arial,Arial_MSFontService,sans-serif" font-weight="400" font-size="41" transform="matrix(1 0 0 1 1901.79 404)">Retrieve antibody </text><text font-family="Arial,Arial_MSFontService,sans-serif" font-weight="400" font-size="41" transform="matrix(1 0 0 1 1954.5 449)">and antigen </text><text font-family="Arial,Arial_MSFontService,sans-serif" font-weight="400" font-size="41" transform="matrix(1 0 0 1 1962.52 493)">sequences</text><path d="M2255.5 352.5 2640.5 352.5 2640.5 519.5 2255.5 519.5 2255.5 352.5Z" stroke="#CBCBCB" stroke-width="6.875" stroke-miterlimit="8" stroke-opacity="0.901961" fill="#CBCBCB" fill-rule="evenodd" fill-opacity="0.901961"/><text font-family="Arial,Arial_MSFontService,sans-serif" font-weight="400" font-size="41" transform="matrix(1 0 0 1 2314.49 426)">Detect epitope </text><text font-family="Arial,Arial_MSFontService,sans-serif" font-weight="400" font-size="41" transform="matrix(1 0 0 1 2369.49 471)">residues</text><rect x="1099.5" y="251.5" width="1540" height="100" stroke="#000000" stroke-width="6.875" stroke-miterlimit="8"/><text fill="#FFFFFF" font-family="Aptos,Aptos_MSFontService,sans-serif" font-weight="400" font-size="83" transform="matrix(1 0 0 1 1621.32 328)">Data Curation</text><rect x="1099.5" y="594.5" width="1540" height="100" stroke="#000000" stroke-width="6.875" stroke-miterlimit="8"/><text fill="#FFFFFF" font-family="Aptos,Aptos_MSFontService,sans-serif" font-weight="400" font-size="83" transform="matrix(1 0 0 1 1633.79 670)">Model Tuning</text><rect x="1099.5" y="936.5" width="1540" height="100" stroke="#000000" stroke-width="6.875" stroke-miterlimit="8"/><text fill="#FFFFFF" font-family="Aptos,Aptos_MSFontService,sans-serif" font-weight="400" font-size="83" transform="matrix(1 0 0 1 1670.66 1013)">Inferencing</text><rect x="1099.5" y="1280.5" width="1540" height="100" stroke="#000000" stroke-width="6.875" stroke-miterlimit="8"/><text fill="#FFFFFF" font-family="Aptos,Aptos_MSFontService,sans-serif" font-weight="400" font-size="83" transform="matrix(1 0 0 1 1682.01 1357)">Evaluation</text><path d="M41.211-7.86673 0.376411 74.8397-41.288-7.4518Z" fill="#5F5F5F" transform="matrix(-1 0 0 1 1869.38 519)"/><path d="M41.211-7.86709 0.376411 74.8393-41.288-7.45216Z" fill="#5F5F5F" transform="matrix(-1 0 0 1 1869.38 861)"/><path d="M41.2171-6.74329 0.37605 75.9599-41.2819-6.33487Z" fill="#5F5F5F" transform="matrix(-1 0 0 1 1869.38 1204)"/></g></svg>