<svg width="1943" height="1772" xmlns="http://www.w3.org/2000/svg" xmlns:xlink="http://www.w3.org/1999/xlink" xml:space="preserve" overflow="hidden"><defs><linearGradient x1="35.9999" y1="0" x2="35.9999" y2="849" gradientUnits="userSpaceOnUse" spreadMethod="reflect" id="fill0"><stop offset="0" stop-color="#00805C"/><stop offset="0.5" stop-color="#00BA87"/><stop offset="1" stop-color="#02DDA2"/></linearGradient><linearGradient x1="36.0001" y1="0" x2="36.0001" y2="1097" gradientUnits="userSpaceOnUse" spreadMethod="reflect" id="fill1"><stop offset="0" stop-color="#509482"/><stop offset="0.5" stop-color="#76D6BB"/><stop offset="1" stop-color="#8DFEDF"/></linearGradient><linearGradient x1="2310" y1="930" x2="2310" y2="1779" gradientUnits="userSpaceOnUse" spreadMethod="reflect" id="fill2"><stop offset="0" stop-color="#00805C"/><stop offset="0.5" stop-color="#00BA87"/><stop offset="1" stop-color="#02DDA2"/></linearGradient><linearGradient x1="2382" y1="798" x2="2382" y2="1895" gradientUnits="userSpaceOnUse" spreadMethod="reflect" id="fill3"><stop offset="0" stop-color="#509482"/><stop offset="0.5" stop-color="#76D6BB"/><stop offset="1" stop-color="#8DFEDF"/></linearGradient></defs><g transform="translate(-1265 -352)"><path d="M0.71231 939.992C-1.54304 829.167-0.254164 718.342 32.2911 611.06 127.349 299.204 333.254 97.8503 646.14 8.28829 760.854-24.5728 853.978 43.082 858.489 161.639 863.323 284.706 863.967 408.418 855.267 530.841 843.989 695.146 700.274 838.187 535.615 856.229 470.524 863.316 404.145 860.094 338.088 861.705 299.098 862.672 275.897 896.499 291.686 929.038 301.353 948.69 318.431 955.133 340.021 956.1 476.002 962.221 575.893 1026.65 635.828 1148.11 712.841 1303.39 649.684 1504.43 499.847 1591.41 420.256 1637.48 341.31 1636.84 264.941 1585.29 172.783 1523.43 113.493 1434.19 65.1585 1336.9 18.4352 1242.51-1.221 1141.34 0.0678734 1036.32 0.390272 1004.1 0.0678734 971.886 0.0678734 939.669Z" stroke="#0C2036" stroke-width="146.667" stroke-linecap="round" stroke-linejoin="round" stroke-miterlimit="10" fill="#17406D" fill-rule="evenodd" transform="matrix(-1 0 0 1 2200.5 425.5)"/><path d="M0.71231 939.992C-1.54304 829.167-0.254164 718.342 32.2911 611.06 127.349 299.204 333.254 97.8503 646.14 8.28829 760.854-24.5729 853.978 43.082 858.489 161.639 863.323 284.706 863.967 408.418 855.267 530.841 843.989 695.146 700.274 838.187 535.615 856.229 470.524 863.316 404.145 860.095 338.088 861.706 299.098 862.672 275.897 896.499 291.686 929.038 301.353 948.69 318.431 955.133 340.021 956.1 476.002 962.221 575.893 1026.65 635.828 1148.11 712.841 1303.39 649.684 1504.43 499.847 1591.41 420.256 1637.48 341.31 1636.84 264.941 1585.29 172.783 1523.43 113.493 1434.19 65.1585 1336.9 18.4352 1242.51-1.221 1141.35 0.0678734 1036.32 0.390272 1004.1 0.0678734 971.886 0.0678734 939.67Z" fill="#17406D" fill-rule="evenodd" transform="matrix(-1 0 0 1 2197 425)"/><path d="M71.9998 0 71.9998 849 64.678 835.428C18.2993 741.096-1.212 640.003 0.067373 535.047 0.387395 502.852 0.067373 470.657 0.067373 438.462L0.707058 438.784C-1.53166 328.032-0.25229 217.281 32.053 110.071Z" fill="url(#fill0)" fill-rule="evenodd" transform="matrix(-1 0 0 1 2198 930)"/><path d="M72.0002 0 72.0002 1097 32.7495 1038.46 0 977.71 0 135.918 2.29607 129.586C17.5217 94.0554 34.4589 60.2539 53.1006 28.1842Z" fill="url(#fill1)" fill-rule="evenodd" transform="matrix(-1 0 0 1 2126 798)"/><path d="M647 0 647 173.737 646.11 173.9C333.239 263.46 127.343 464.806 32.2897 776.653 7.88199 857.111 1.05488 939.563 0.118412 1022.51L0.179062 1031 0.0678704 1028.16C0.390255 995.946 0.0678704 963.73 0.0678704 931.515L0.712278 931.837C-1.54297 821.016-0.254153 710.194 32.2897 602.916 127.343 291.07 333.239 89.723 646.11 0.163869L647 0Z" fill="#10CF9B" fill-rule="evenodd" transform="matrix(-1 0 0 1 2197 433)"/><path d="M517 0 517 173.783 431.635 214.932C237.198 323.991 103.504 495.765 32.1846 729.712 24.0454 756.538 17.8602 783.586 13.1961 810.801L3.68096 890 3.00667 885.522 0.0606752 810.344 0 801.854C0.936853 718.882 7.76678 636.409 32.1846 555.929 103.504 321.982 237.198 150.208 431.635 41.15L517 0Z" fill="#94F7DC" fill-rule="evenodd" transform="matrix(-1 0 0 1 2200 653)"/><path d="M2273.21 1365.49C2270.96 1254.67 2272.25 1143.84 2304.79 1036.56 2399.85 724.704 2605.75 523.35 2918.64 433.788 3033.35 400.927 3126.48 468.582 3130.99 587.139 3135.82 710.206 3136.47 833.918 3127.77 956.341 3116.49 1120.65 2972.77 1263.69 2808.11 1281.73 2743.02 1288.82 2676.65 1285.59 2610.59 1287.21 2571.6 1288.17 2548.4 1322 2564.19 1354.54 2573.85 1374.19 2590.93 1380.63 2612.52 1381.6 2748.5 1387.72 2848.39 1452.15 2908.33 1573.61 2985.34 1728.89 2922.18 1929.93 2772.35 2016.91 2692.76 2062.98 2613.81 2062.34 2537.44 2010.79 2445.28 1948.93 2385.99 1859.69 2337.66 1762.4 2290.94 1668.01 2271.28 1566.84 2272.57 1461.82 2272.89 1429.6 2272.57 1397.39 2272.57 1365.17Z" stroke="#0C2036" stroke-width="146.667" stroke-linecap="round" stroke-linejoin="round" stroke-miterlimit="10" fill="#17406D" fill-rule="evenodd"/><path d="M2275.71 1364.99C2273.46 1254.17 2274.75 1143.34 2307.29 1036.06 2402.35 724.204 2608.25 522.85 2921.14 433.288 3035.85 400.427 3128.98 468.082 3133.49 586.639 3138.32 709.706 3138.97 833.418 3130.27 955.841 3118.99 1120.15 2975.27 1263.19 2810.61 1281.23 2745.52 1288.32 2679.15 1285.09 2613.09 1286.71 2574.1 1287.67 2550.9 1321.5 2566.69 1354.04 2576.35 1373.69 2593.43 1380.13 2615.02 1381.1 2751 1387.22 2850.89 1451.65 2910.83 1573.11 2987.84 1728.39 2924.68 1929.43 2774.85 2016.41 2695.26 2062.48 2616.31 2061.84 2539.94 2010.29 2447.78 1948.43 2388.49 1859.19 2340.16 1761.9 2293.44 1667.51 2273.78 1566.35 2275.07 1461.32 2275.39 1429.1 2275.07 1396.89 2275.07 1364.67Z" fill="#17406D" fill-rule="evenodd"/><path d="M2346 930 2346 1779 2338.68 1765.43C2292.3 1671.1 2272.79 1570 2274.07 1465.05 2274.39 1432.85 2274.07 1400.66 2274.07 1368.46L2274.71 1368.78C2272.47 1258.03 2273.75 1147.28 2306.05 1040.07Z" fill="url(#fill2)" fill-rule="evenodd"/><path d="M2418 798 2418 1895 2378.75 1836.46 2346 1775.71 2346 933.917 2348.3 927.586C2363.52 892.055 2380.46 858.254 2399.1 826.184Z" fill="url(#fill3)" fill-rule="evenodd"/><path d="M2922 433 2922 606.737 2921.11 606.901C2608.24 696.46 2402.34 897.807 2307.29 1209.65 2282.88 1290.11 2276.05 1372.56 2275.12 1455.51L2275.18 1464 2275.07 1461.16C2275.39 1428.95 2275.07 1396.73 2275.07 1364.51L2275.71 1364.84C2273.46 1254.02 2274.75 1143.19 2307.29 1035.92 2402.34 724.07 2608.24 522.723 2921.11 433.164L2922 433Z" fill="#10CF9B" fill-rule="evenodd"/><path d="M2789 653 2789 826.783 2703.63 867.933C2509.2 976.991 2375.5 1148.77 2304.18 1382.71 2296.05 1409.54 2289.86 1436.59 2285.2 1463.8L2275.68 1543 2275.01 1538.52 2272.06 1463.34 2272 1454.85C2272.94 1371.88 2279.77 1289.41 2304.18 1208.93 2375.5 974.983 2509.2 803.208 2703.63 694.15L2789 653Z" fill="#94F7DC" fill-rule="evenodd"/></g></svg>